# xmcd
#
# Track frame offsets:
#	183
#	12958
#	28140
#	53583
#	64030
#	76603
#	87773
#	98720
#	109863
#	119920
#	133025
#	148770
#	161255
#	170460
#	183105
#	198905
#
# Disc length: 2889 seconds
# Revision: 10
# Processed by: cddbd v1.5.2PL0 Copyright (c) Steve Scherf et al.
# Submitted via: dBpowerAMP V12.0
#
DISCID=cb0b4710
DTITLE=Various Artist - The Best Of Blues Guitar
DYEAR=1993
DGENRE=Blues
TTITLE0=T-Bone Walker - Stormy Monday Blues
TTITLE1=Muddy Waters - Honey Bee
TTITLE2=Eric Clapton - Smokestack Lighting
TTITLE3=Buddy Guy - First Time I Met The Blues
TTITLE4=Jimmy Reed - Big Boss Man
TTITLE5=Elmore James - Rollin' And Tumblin'
TTITLE6=Jeff Beck - Shapes Of Things
TTITLE7=Johnny Winter - Gangster Of Love
TTITLE8=John Lee Hooker - Dimples
TTITLE9=Otis Rush - All Your Love
TTITLE10=Magic Sam - Easy Baby
TTITLE11=Albert King - California Blues
TTITLE12=Clarence 'Gatemouth' Brown - Gate's Salty Blues
TTITLE13=Jimmy Walker - Walkin' By Myself
TTITLE14=Genton Robinson - The Sky Is Crying
TTITLE15=Lightnin' Hopkins - Back Door Friend
EXTD=
EXTT0=
EXTT1=
EXTT2=
EXTT3=
EXTT4=
EXTT5=
EXTT6=
EXTT7=
EXTT8=
EXTT9=
EXTT10=
EXTT11=
EXTT12=
EXTT13=
EXTT14=
EXTT15=
PLAYORDER=
